<?xml version="1.0" ?><!DOCTYPE svg  PUBLIC '-//W3C//DTD SVG 1.1//EN'  'http://www.w3.org/Graphics/SVG/1.1/DTD/svg11.dtd'><svg enable-background="new 0 0 800 800" height="800px" id="GUIDE" version="1.1" viewBox="0 0 800 800" width="800px" xml:space="preserve" xmlns="http://www.w3.org/2000/svg" xmlns:cc="http://creativecommons.org/ns#" xmlns:dc="http://purl.org/dc/elements/1.1/" xmlns:inkscape="http://www.inkscape.org/namespaces/inkscape" xmlns:rdf="http://www.w3.org/1999/02/22-rdf-syntax-ns#" xmlns:sodipodi="http://sodipodi.sourceforge.net/DTD/sodipodi-0.dtd" xmlns:svg="http://www.w3.org/2000/svg" xmlns:xlink="http://www.w3.org/1999/xlink"><path d="M747.68,243.817c-13.646-30.38-42.414-52.936-83.186-65.236c-35.11-10.59-79.442-13.62-128.55-8.836  c-40.749-24.161-87.37-37.061-135.985-37.061c-71.402,0-138.531,27.804-189.021,78.296c-38.17,38.167-63.363,85.846-73.39,137.693  c-36.214,33.543-63.409,68.706-78.82,101.998c-17.889,38.651-20.131,75.136-6.488,105.513  c21.614,48.121,79.354,75.209,162.583,76.274c1.713,0.021,3.431,0.032,5.157,0.032c14.234,0,28.943-0.748,44.026-2.215  c40.738,24.149,87.354,37.041,135.953,37.041c71.401,0,138.531-27.806,189.021-78.296c38.164-38.161,63.354-85.837,73.391-137.677  c12.468-11.554,23.961-23.351,34.331-35.326C751.188,353.092,769.291,291.936,747.68,243.817z M375.725,171.839  c1.423,4.712,2.157,9.634,2.157,14.608c0,27.78-22.6,50.383-50.379,50.383c-21.263,0-39.88-13.396-47.141-32.56  C308.699,186.893,341.073,175.494,375.725,171.839z M215.308,594.582c-66.665-0.855-113.508-20.509-128.518-53.92  c-9.139-20.355-7.02-45.28,6.313-74.082c8.771-18.948,22.223-38.85,39.658-58.834c1.938,68.501,29.517,132.618,78.176,181.273  c1.89,1.892,3.813,3.742,5.752,5.569C216.231,594.587,215.768,594.59,215.308,594.582z M399.959,629.442  c-23.527,0-46.237-3.568-67.622-10.18c47.031-10.393,96.008-26.734,144.344-48.447c48.305-21.696,93.04-47.427,132.036-75.66  C572.492,574.313,492.546,629.442,399.959,629.442z M627.133,432.167c-44.691,39.297-101.891,75.315-165.972,104.098  c-64.035,28.764-128.906,47.579-187.939,54.897C211.37,550.02,170.52,479.694,170.52,400c0-68.867,30.505-130.741,78.706-172.833  c14.857,28.418,44.674,47.544,78.277,47.544c48.664,0,88.255-39.596,88.255-88.263c0-5.188-0.465-10.35-1.365-15.419  C534.207,178.507,629.4,278.335,629.4,400C629.4,410.918,628.614,421.653,627.133,432.167z M668.062,391.218  c-0.295,0.344-0.605,0.687-0.905,1.03c-1.935-68.498-29.519-132.612-78.177-181.269c-1.89-1.893-3.808-3.742-5.746-5.57  c26.517,0.24,50.33,3.406,70.319,9.438c30.386,9.165,50.43,24.133,59.573,44.488C728.133,292.747,711.707,340.819,668.062,391.218z" fill="#041C3F"/><path d="M327.503,337.913c-38.438,0-69.706,31.271-69.706,69.706c0,38.43,31.268,69.699,69.706,69.699  c38.432,0,69.702-31.271,69.702-69.699C397.205,369.183,365.935,337.913,327.503,337.913z M327.503,439.443  c-17.55,0-31.825-14.278-31.825-31.825c0-17.55,14.275-31.825,31.825-31.825c17.547,0,31.822,14.274,31.822,31.825  C359.325,425.165,345.05,439.443,327.503,439.443z" fill="#041C3F"/><path d="M530.574,341.849c-32.067,0-58.154,26.086-58.154,58.151s26.087,58.151,58.154,58.151  c32.063,0,58.146-26.086,58.146-58.151S562.637,341.849,530.574,341.849z M530.574,420.271c-11.177,0-20.273-9.095-20.273-20.271  c0-11.178,9.097-20.271,20.273-20.271c11.176,0,20.268,9.094,20.268,20.271C550.842,411.177,541.751,420.271,530.574,420.271z" fill="#041C3F"/></svg>